<?xml version="1.0" encoding="utf-8"?>
<!-- Generator: Adobe Illustrator 21.0.2, SVG Export Plug-In . SVG Version: 6.00 Build 0)  -->
<svg version="1.1" xmlns="http://www.w3.org/2000/svg" xmlns:xlink="http://www.w3.org/1999/xlink" x="0px" y="0px"
	 viewBox="0 0 97 90" style="enable-background:new 0 0 96 90;" xml:space="preserve">
<style type="text/css">
	.st0{fill-rule:evenodd;clip-rule:evenodd;fill:#FFFFFF;}
	.st1{fill-rule:evenodd;clip-rule:evenodd;fill:#267193;}
</style>
<g id="Layer_2">
	<rect class="st0" width="94" height="90"/>
</g>
<g id="Layer_1">
	<path class="st1" d="M38.9,0c-1.5,0.9-15.8,13-18.2,16.7c-0.3,13,9.2,27.5,22.4,39.8c21.7,16.9,5.1-22.5,8.4-28.1
		c0.1-3,5.5-2.4,10.2-0.8c4.1,1.3,7.5,3.5,8.6,5.3c5.5,2,10.8,3.5,15.9,4.5c-5.1,0-10.4-0.5-15.9-1.4c-2,1.8-6.1,1.9-11.6-0.3
		C50.8,39.3,76,56.6,75.1,66.8C87,63.5,96.9,51.2,97,38.8c-0.2-20.5-59.8-57.4,3-15.5c0,22.9,0,49.3,0,72.7c-33.5,0-72.2,0-100,0
		c0-15.1,0-30.2,0-45.3c3.6,1.9,15.5,4.2,19.3,5C15,54.1,3.5,44.9,0,41.7l0-10.7c2.8,2.6,15.4,10.8,18.7,13.2
		C14.3,40.7,2.3,26.4,0,22.1C0,14.7,0,7.4,0,0c0.5,0,2.5,0,2.7,0c0.8,8,11.6,28.6,16.7,37.5C14.9,28.1,12.1,8.1,10.6,0
		C24.4,0,33.3,0,38.9,0L38.9,0z M8.4,89.9L4.6,78.7h3.2l2.6,8l2.7-8h2.9L12,89.9H8.4L8.4,89.9z M19.1,89.9V78.7H27v2.4h-4.9v1.8h4.5
		v2.4h-4.5v2.2h5.1v2.4H19.1L19.1,89.9z M33.7,86.2C33.7,86.2,33.7,86.2,33.7,86.2c0,0.2,0,0.3,0,0.3c0,0.4,0.1,0.8,0.4,1
		c0.3,0.2,0.7,0.3,1.4,0.3c0.5,0,0.8-0.1,1.1-0.3c0.3-0.2,0.4-0.4,0.4-0.7c0-0.5-0.5-0.8-1.6-1.1c-0.1,0-0.2-0.1-0.3-0.1
		c-0.1,0-0.2,0-0.3-0.1c-1.7-0.5-2.7-1-3.2-1.5c-0.2-0.3-0.4-0.6-0.5-0.9c-0.1-0.4-0.2-0.8-0.2-1.2c0-1.1,0.4-1.9,1.2-2.5
		c0.8-0.6,1.9-0.9,3.4-0.9c1.5,0,2.5,0.3,3.2,0.8c0.7,0.5,1.1,1.4,1.1,2.5V82H37v-0.1c0-0.4-0.1-0.7-0.4-0.9
		c-0.3-0.2-0.7-0.3-1.2-0.3c-0.4,0-0.7,0.1-1,0.2c-0.2,0.1-0.3,0.3-0.3,0.6c0,0.5,0.6,0.9,1.8,1.2c0.2,0.1,0.4,0.1,0.5,0.1
		c0.9,0.2,1.5,0.4,1.8,0.6c0.4,0.2,0.7,0.4,0.9,0.6c0.3,0.3,0.5,0.6,0.7,1c0.2,0.4,0.2,0.9,0.2,1.4c0,1.1-0.4,2-1.3,2.6
		c-0.8,0.6-2,0.9-3.6,0.9c-1.6,0-2.7-0.3-3.4-0.9c-0.7-0.6-1-1.5-1-2.8v-0.2H33.7L33.7,86.2z M44,89.9V78.7h3v11.1H44L44,89.9z
		 M59,87.4v2.4h-7.6V78.7h3v8.7H59L59,87.4z M62.7,89.9V78.7h3v11.1H62.7L62.7,89.9z M70.1,89.9V78.7h3.7l4,7.5v-7.5h2.8v11.1h-3.9
		l-3.9-7.5v7.5H70.1L70.1,89.9z M89.4,81.2H88v6.3h1.4c1,0,1.8-0.2,2.2-0.7c0.5-0.5,0.7-1.3,0.7-2.4c0-1.1-0.2-1.9-0.7-2.4
		C91.1,81.4,90.4,81.2,89.4,81.2L89.4,81.2z M85,89.9V78.7H90c1.8,0,3.1,0.5,4,1.5c0.9,1,1.4,2.4,1.4,4.2c0,1.8-0.4,3.1-1.3,4.1
		c-0.9,0.9-2.1,1.4-3.8,1.4H85L85,89.9z"/>
</g>
</svg>
